# xmcd CD database file
#
# Track frame offsets:
#	150
#	28802
#	38258
#	64707
#	83753
#	109975
#	125127
#	147960
#	171625
#	191684
#	209724
#	231290
#	252999
#	263886
#	283652
#	306342
#
# Disc length: 4361 seconds
#
# Revision: 0
# Processed by: cddbd v1.5.2PL0 Copyright (c) Steve Scherf et al.
# Submitted via: CDex 1.51
#
DISCID=f9110710
DTITLE=Various Artist - WTPI Jazz Sampler Volume 6
DYEAR=2003
DGENRE=Jazz
TTITLE0=Gregg Bacon - Memphis Underground
TTITLE1=Janiece Jaffe - Let's Get Lost
TTITLE2=Mina Keohane - Anna Claudia
TTITLE3=Everett Greene - There Will Never Be Another You
TTITLE4=Aaron Parks - Miss Otis Regrets
TTITLE5=Lisa Baldwin - Misty
TTITLE6=Buselli Wallarab Jazz Orchestra - Jubilee
TTITLE7=7 Pleasures - Loves Takes You There
TTITLE8=Marvin Chandler and the Jack Gilfoy Quartet - Snowfall
TTITLE9=Cherryl Hayes - Lullabye of Birdland
TTITLE10=Tom Mullinix - Killer Joe
TTITLE11=Brenda Williams - Get Here
TTITLE12=Fred Sights - Marshelle's Sunrise
TTITLE13=Four Sexes - A Secret Rendezvous
TTITLE14=Bill Lancton and the Indianapolis Guitar Summit - Blues For Grant Green
TTITLE15=Monika Herzig Acoustic Project - Softly We Say Good-bye
EXTD=YEAR: 2003
EXTT0=
EXTT1=
EXTT2=
EXTT3=
EXTT4=
EXTT5=
EXTT6=
EXTT7=
EXTT8=
EXTT9=
EXTT10=
EXTT11=
EXTT12=
EXTT13=
EXTT14=
EXTT15=
PLAYORDER=
